<?xml version="1.0" encoding="UTF-8"?>
<svg width="118px" height="35px" viewBox="0 0 118 35" version="1.1" xmlns="http://www.w3.org/2000/svg" xmlns:xlink="http://www.w3.org/1999/xlink">
    <!-- Generator: Sketch 41.2 (35397) - http://www.bohemiancoding.com/sketch -->
    <title>bizplan copy 2</title>
    <desc>Created with Sketch.</desc>
    <defs></defs>
    <g id="Page-1" stroke="none" stroke-width="1" fill="none" fill-rule="evenodd">
        <g id="Artboard" transform="translate(-315.000000, -303.000000)" fill="#1D181F">
            <path d="M326.009957,330.210031 C331.386913,330.210031 335.081284,325.931034 335.081284,320.518286 C335.081284,315.105538 331.386913,310.826541 326.009957,310.826541 C323.559236,310.826541 321.291404,311.740857 319.718553,314.008359 L319.718553,304.901776 C319.718553,303.914316 319.169884,303.365726 318.18228,303.365726 L316.572851,303.365726 C315.585247,303.365726 315,303.914316 315,304.901776 L315,328.271682 C315,329.259143 315.585247,329.807732 316.572851,329.807732 L318.18228,329.807732 C319.169884,329.807732 319.718553,329.259143 319.718553,328.271682 L319.718553,327.028213 C321.291404,329.295716 323.559236,330.210031 326.009957,330.210031 L326.009957,330.210031 Z M325.095509,326.296761 C321.876651,326.296761 319.681975,323.846395 319.645397,320.518286 C319.681975,317.190178 321.876651,314.739812 325.095509,314.739812 C328.460679,314.739812 330.362731,317.373041 330.362731,320.518286 C330.362731,323.700104 328.460679,326.296761 325.095509,326.296761 L325.095509,326.296761 Z M339.304003,308.485893 C341.096322,308.485893 342.303394,307.278997 342.303394,305.742947 C342.303394,304.206897 341.1329,303 339.304003,303 C337.475107,303 336.341191,304.206897 336.341191,305.742947 C336.341191,307.278997 337.511685,308.485893 339.304003,308.485893 L339.304003,308.485893 Z M338.499289,329.807732 L340.145296,329.807732 C341.1329,329.807732 341.681569,329.259143 341.681569,328.271682 L341.681569,312.801463 C341.681569,311.814002 341.1329,311.22884 340.145296,311.22884 L338.499289,311.22884 C337.511685,311.22884 336.963016,311.814002 336.963016,312.801463 L336.963016,328.271682 C336.963016,329.259143 337.511685,329.807732 338.499289,329.807732 L338.499289,329.807732 Z M344.916684,329.807732 L360.462304,329.807732 C361.449909,329.807732 362.035155,329.259143 362.035155,328.271682 L362.035155,327.649948 C362.035155,326.662487 361.486486,326.113898 360.498882,326.113898 L350.074172,326.113898 L360.572038,314.84953 C361.120707,314.264368 361.340175,313.715778 361.340175,312.947753 L361.340175,312.801463 C361.340175,311.814002 360.791506,311.22884 359.803902,311.22884 L345.538508,311.22884 C344.550904,311.22884 344.002235,311.814002 344.002235,312.801463 L344.002235,313.386625 C344.002235,314.374086 344.550904,314.959248 345.538508,314.959248 L354.646413,314.959248 L344.111969,326.223615 C343.5633,326.808777 343.343833,327.357367 343.343833,328.125392 L343.343833,328.271682 C343.343833,329.259143 343.929079,329.807732 344.916684,329.807732 L344.916684,329.807732 Z M365.197114,338 L366.806543,338 C367.794148,338 368.379394,337.451411 368.379394,336.46395 L368.379394,327.028213 C369.915668,329.295716 372.183499,330.210031 374.670799,330.210031 C380.047755,330.210031 383.705548,325.931034 383.705548,320.518286 C383.705548,315.105538 380.047755,310.826541 374.670799,310.826541 C372.183499,310.826541 369.915668,311.740857 368.379394,314.008359 L368.379394,312.801463 C368.379394,311.814002 367.794148,311.22884 366.806543,311.22884 L365.197114,311.22884 C364.20951,311.22884 363.660841,311.814002 363.660841,312.801463 L363.660841,336.46395 C363.660841,337.451411 364.20951,338 365.197114,338 L365.197114,338 Z M373.75635,326.296761 C370.500914,326.296761 368.306239,323.846395 368.269661,320.518286 C368.306239,317.190178 370.500914,314.739812 373.75635,314.739812 C377.084942,314.739812 378.986995,317.373041 378.986995,320.518286 C378.986995,323.700104 377.084942,326.296761 373.75635,326.296761 L373.75635,326.296761 Z M387.086974,329.807732 L388.732981,329.807732 C389.720585,329.807732 390.269254,329.259143 390.269254,328.271682 L390.269254,304.901776 C390.269254,303.914316 389.720585,303.365726 388.732981,303.365726 L387.086974,303.365726 C386.09937,303.365726 385.550701,303.914316 385.550701,304.901776 L385.550701,328.271682 C385.550701,329.259143 386.09937,329.807732 387.086974,329.807732 L387.086974,329.807732 Z M401.185735,330.210031 C403.636456,330.210031 405.904288,329.295716 407.477139,327.028213 L407.477139,328.271682 C407.477139,329.259143 408.025808,329.807732 409.013412,329.807732 L410.622841,329.807732 C411.610445,329.807732 412.195692,329.259143 412.195692,328.271682 L412.195692,312.801463 C412.195692,311.814002 411.610445,311.22884 410.622841,311.22884 L409.013412,311.22884 C408.025808,311.22884 407.477139,311.814002 407.477139,312.801463 L407.477139,314.008359 C405.904288,311.740857 403.636456,310.826541 401.185735,310.826541 C395.808779,310.826541 392.114408,315.105538 392.114408,320.518286 C392.114408,325.931034 395.808779,330.210031 401.185735,330.210031 L401.185735,330.210031 Z M402.100183,326.296761 C398.771591,326.296761 396.832961,323.700104 396.832961,320.518286 C396.832961,317.373041 398.771591,314.739812 402.100183,314.739812 C405.355619,314.739812 407.513717,317.190178 407.550295,320.518286 C407.513717,323.846395 405.355619,326.296761 402.100183,326.296761 L402.100183,326.296761 Z M416.711034,329.807732 L418.320463,329.807732 C419.308067,329.807732 419.893314,329.259143 419.893314,328.271682 L419.893314,320.737722 C419.893314,316.202717 422.782971,314.776385 424.685023,314.776385 C426.623654,314.776385 428.013615,316.239289 428.013615,319.421108 L428.013615,328.271682 C428.013615,329.259143 428.562284,329.807732 429.549888,329.807732 L431.159317,329.807732 C432.146921,329.807732 432.732168,329.259143 432.732168,328.271682 L432.732168,319.201672 C432.732168,314.118077 430.318025,310.826541 425.782361,310.826541 C422.929283,310.826541 420.734607,312.179728 419.893314,314.520376 L419.893314,312.801463 C419.893314,311.814002 419.308067,311.22884 418.320463,311.22884 L416.711034,311.22884 C415.72343,311.22884 415.174761,311.814002 415.174761,312.801463 L415.174761,328.271682 C415.174761,329.259143 415.72343,329.807732 416.711034,329.807732 L416.711034,329.807732 Z" id="bizplan-copy-2"></path>
        </g>
    </g>
</svg>