<?xml version="1.0" encoding="UTF-8"?>
<svg width="110px" height="35px" viewBox="0 0 110 35" version="1.1" xmlns="http://www.w3.org/2000/svg" xmlns:xlink="http://www.w3.org/1999/xlink">
    <!-- Generator: Sketch 41.2 (35397) - http://www.bohemiancoding.com/sketch -->
    <title>Imported Layers Copy 4</title>
    <desc>Created with Sketch.</desc>
    <defs></defs>
    <g id="Page-1" stroke="none" stroke-width="1" fill="none" fill-rule="evenodd" opacity="0.947702892">
        <g id="partner-deck-copy" transform="translate(-1245.000000, -1673.000000)" fill="#1D181F">
            <g id="Group-3-Copy-2" transform="translate(1115.000000, 1577.000000)">
                <g id="Group-2" transform="translate(50.000000, 96.000000)">
                    <path d="M87.9243413,19.9538182 C87.9243413,19.9538182 83.3381729,13.1203636 91.2048858,7.23272727 C91.2048858,7.23272727 93.5490739,5.45672727 95.9592026,5.42836364 C98.3693314,5.39781818 97.7670739,8.41527273 96.7966482,10.2207273 L102.822519,10.3090909 C102.822519,10.3090909 104.663361,8.17854545 102.789549,3.74181818 C100.914638,-0.697090909 93.9842819,-0.282545455 90.6366977,1.28618182 C87.2880145,2.85381818 78.792668,7.26218182 80.1444502,17.4381818 C81.4962323,27.6152727 95.4910244,29.0661818 102.989569,25.3090909 L101.181698,20.4850909 C101.181698,20.4850909 92.9468165,24.4789091 87.9243413,19.9538182 L87.9243413,19.9538182 Z M154.712272,20.7392727 L155.936569,9.41890909 L150.465698,9.41890909 C150.465698,9.41890909 150.105222,13.0101818 149.385371,20.328 C149.328222,20.9072727 149.320529,21.4221818 149.332618,21.9065455 C146.702688,22.8643636 146.871935,20.7392727 146.871935,20.7392727 L147.143391,18.3392727 L148.355599,10.6309091 C145.009114,11.5494545 140.243807,11.0170909 140.243807,11.0170909 C140.646044,8.41309091 136.395074,9.03490909 136.395074,9.03490909 C131.907817,10.8981818 135.18946,15.4843636 135.18946,15.4843636 L133.301361,21.9872727 C130.897826,22.752 131.062678,20.7392727 131.062678,20.7392727 L133.2585,9.672 L127.283183,9.672 C127.283183,9.672 127.216143,9.94145455 127.104044,10.4934545 L126.994143,10.4334545 L126.994143,10.4301818 C126.951282,10.4072727 126.909519,10.3876364 126.867757,10.3658182 L126.838084,10.3494545 C122.470618,8.19490909 118.611995,10.4574545 118.611995,10.4574545 C108.735193,17.292 114.259916,25.0123636 114.259916,25.0123636 C118.573529,29.0847273 123.73448,26.2854545 125.242321,25.3112727 C125.242321,25.3112727 125.696213,25.0298182 126.23143,24.6807273 C127.467817,27.4145455 130.306559,27.1527273 130.306559,27.1527273 L131.567123,27.1592727 C133.784925,27.1592727 134.366302,25.0549091 134.482797,23.4130909 L137.19845,23.4130909 C137.19845,23.4130909 138.337024,19.596 138.706292,18.204 C139.073361,16.8098182 139.57451,15.9283636 140.713084,15.7210909 C141.392272,15.5978182 141.761539,15.948 141.94947,16.2512727 C141.836272,17.3672727 141.703292,18.7123636 141.545034,20.328 C140.825183,27.6425455 146.116916,27.1527273 146.116916,27.1527273 L147.376381,27.1592727 C148.928183,27.1592727 149.670015,26.1229091 150.022797,24.9414545 C151.31743,27.384 153.957252,27.1527273 153.957252,27.1527273 L155.215618,27.1592727 C158.852242,27.1592727 158.096123,21.504 158.096123,21.504 C154.496866,23.3476364 154.712272,20.7392727 154.712272,20.7392727 L154.712272,20.7392727 Z M124.848876,19.1967273 C124.848876,19.1967273 123.295975,22.2676364 120.856173,22.2032727 C118.415272,22.1367273 118.046005,18.8378182 120.856173,15.636 C120.856173,15.636 123.592708,12.9567273 125.256609,15.1134545 C125.256609,15.1134545 126.439143,16.2894545 124.848876,19.1967273 L124.848876,19.1967273 Z M109.014341,20.7392727 L111.426668,0.194181818 L105.954698,0.194181818 C105.954698,0.194181818 104.406193,13.0101818 103.68744,20.328 C102.96649,27.6425455 108.258222,27.1527273 108.258222,27.1527273 L109.518787,27.1592727 C113.153213,27.1592727 112.397094,21.504 112.397094,21.504 C108.798935,23.3476364 109.014341,20.7392727 109.014341,20.7392727 L109.014341,20.7392727 Z M165.136381,14.2832727 L168.498252,14.2832727 L169.219203,9.41890909 L165.667203,9.41890909 L166.376064,2.92690909 L160.904094,2.92690909 C160.904094,2.92690909 160.606262,5.71309091 160.217213,9.41890909 L157.377371,9.41890909 L156.65642,14.2832727 L159.712767,14.2832727 C159.502856,16.3330909 159.291846,18.4232727 159.102817,20.328 C158.384064,27.6425455 163.676896,27.1527273 163.676896,27.1527273 L164.935262,27.1592727 C168.571886,27.1592727 167.814668,21.504 167.814668,21.504 C164.21651,23.3476364 164.431916,20.7392727 164.431916,20.7392727 L165.136381,14.2832727 L165.136381,14.2832727 Z M153.811084,6.04472727 C155.700282,6.04472727 157.231203,4.69090909 157.231203,3.02290909 C157.231203,1.35272727 155.700282,0 153.811084,0 C151.922985,0 150.393163,1.35272727 150.393163,3.02290909 C150.393163,4.69090909 151.922985,6.04472727 153.811084,6.04472727 L153.811084,6.04472727 Z M185.84942,22.2665455 L187.793569,9.25636364 L182.106193,9.25636364 C181.780886,11.9923636 180.629123,16.1596364 177.56948,19.4367273 C174.510935,22.7116364 174.349381,19.5305455 174.349381,19.5305455 L175.48246,9.25636364 L170.189628,9.25636364 C170.189628,9.25636364 169.902787,10.4650909 168.896094,18.0458182 C167.888302,25.6243636 170.767708,26.5930909 170.767708,26.5930909 C175.302222,28.8829091 180.019173,24.2072727 180.019173,24.2072727 L180.019173,25.6701818 C180.019173,25.6701818 179.731232,25.9570909 177.56948,30.3141818 C175.409925,34.6712727 179.04545,35.5952727 181.99849,34.4825455 C184.949331,33.3676364 185.057034,28.7236364 185.057034,28.7236364 L189.125569,26.6574545 L189.90147,21.216 L185.84942,22.2665455 L185.84942,22.2665455 Z" id="Imported-Layers-Copy-4"></path>
                </g>
            </g>
        </g>
    </g>
</svg>