<?xml version="1.0" encoding="UTF-8"?>
<svg width="82px" height="18px" viewBox="0 0 82 18" version="1.1" xmlns="http://www.w3.org/2000/svg" xmlns:xlink="http://www.w3.org/1999/xlink">
    <!-- Generator: Sketch 41.2 (35397) - http://www.bohemiancoding.com/sketch -->
    <title>Imported-Layers</title>
    <desc>Created with Sketch.</desc>
    <defs></defs>
    <g id="Page-1" stroke="none" stroke-width="1" fill="none" fill-rule="evenodd">
        <path d="M3.91322251,3.53521262 L8.34582752,3.53521262 L8.34582752,0.00648514 L0,0.00648514 L0,17.4863727 L3.91322251,17.4863727 L3.91322251,10.4880947 L8.42292336,10.4880947 L8.42292336,6.8637114 L3.91322251,6.8637114 L3.91322251,3.53521262 L3.91322251,3.53521262 L3.91322251,3.53521262 Z M15.5206098,13.1948305 C15.5206098,13.7112099 15.2876992,14.7326196 14.3000609,14.7472112 C13.3124227,14.7593708 13.0218931,13.6560862 13.0218931,13.2507649 L13.0218931,0.01459157 L9.17440491,0.00648514 L9.17440491,12.7838347 C9.18657794,14.8307074 9.74247952,17.8406236 14.2132267,17.8357597 C18.7789234,17.8308959 19.312102,14.7877433 19.3137251,12.7838347 L19.3137251,0.00648514 L15.5060022,0.01459157 L15.5206098,13.1948305 L15.5206098,13.1948305 L15.5206098,13.1948305 Z M27.2472928,0.00162129 L27.2773196,10.8723393 L27.2091506,10.8723393 L24.6617418,0.02837249 L20.2275137,0.02512992 L20.2413098,17.5058282 L23.915941,17.5042069 L23.915941,6.2573507 L23.9248679,6.2557294 L26.6727259,17.4831302 L30.94627,17.4855621 L30.9324739,0.00162129 L27.2472928,0.00162129 L27.2472928,0.00162129 L27.2472928,0.00162129 Z M42.0951399,8.4217666 C42.0935169,6.7048254 41.9766558,5.120019 41.9385137,4.7990045 C41.843564,4.0134918 41.5522229,1.69586444 40.1174288,0.75470831 C38.9163567,-0.02188735 37.9855259,0.00243193 35.8609269,0.00972771 L31.7220976,0.00972771 L31.7042438,17.4855621 L36.8607382,17.4855621 C37.999322,17.4855621 39.0859676,17.4271958 40.0549406,16.7211261 C41.1310362,15.968039 41.843564,14.2162403 41.9068638,12.8576032 C41.9336444,12.2788043 42.096763,10.2781382 42.0951399,8.4217666 L42.0951399,8.4217666 L42.0951399,8.4217666 Z M38.1105023,11.322246 C38.0309719,12.8259881 37.849188,14.3418899 36.8761574,14.3694517 C36.440363,14.3816114 36.1555141,14.371073 35.5249513,14.3694517 L35.5476743,3.07314631 C36.105199,3.07152502 36.4517245,3.07314631 36.8445075,3.07314631 C37.7079809,3.07476759 38.067491,4.4447537 38.0967062,5.1362319 C38.1316022,5.9533597 38.1989597,9.6928542 38.1105023,11.322246 L38.1105023,11.322246 L38.1105023,11.322246 Z M45.2016965,0.00648514 L41.5838728,17.4863727 L45.6009718,17.4863727 L46.0708507,14.5534676 L49.1627996,14.5534676 L49.7227588,17.4863727 L53.7439155,17.4863727 L50.0830805,0.01459157 L45.2016965,0.00648514 L45.2016965,0.00648514 L45.2016965,0.00648514 Z M46.4644452,11.1366088 L47.6395481,3.2060917 L47.6849941,3.2060917 L48.7489167,11.1366088 L46.4644452,11.1366088 L46.4644452,11.1366088 L46.4644452,11.1366088 Z M62.527972,8.3358384 L62.527972,8.2896318 C63.7566362,7.5130361 64.3019879,6.0360452 64.2987417,4.4836645 C64.2922494,0.98979468 62.4021841,0.01621285 60.4269075,0 L54.3517554,0.00648514 L54.3517554,17.4863727 L59.8669483,17.4863727 C62.7495211,17.4863727 64.7288554,16.1244931 64.7288554,12.5463164 C64.7288554,10.3575812 64.1721422,9.3953484 62.527972,8.3358384 L62.527972,8.3358384 L62.527972,8.3358384 Z M59.2258355,3.06828245 C59.8466599,3.08368466 60.4407036,3.81083113 60.4187922,4.9189796 C60.3952576,6.1284585 60.0771359,6.8629007 59.1941856,6.8855987 C58.8858023,6.8937051 58.5822881,6.8855987 58.1448707,6.8855987 L58.1375668,3.07557824 C58.5433344,3.07557824 58.9085252,3.06828245 59.2258355,3.06828245 L59.2258355,3.06828245 L59.2258355,3.06828245 Z M59.1941856,14.4132264 C58.8289948,14.4132264 58.5271037,14.4067413 58.0580364,14.4067413 L58.0580364,10.0843946 C58.5043807,10.0714244 58.8922945,10.0908798 59.202301,10.0908798 C60.3473771,10.0843946 60.7328563,11.1779516 60.7133794,12.1645037 C60.6890334,13.3504739 60.3392617,14.4140371 59.1941856,14.4132264 L59.1941856,14.4132264 L59.1941856,14.4132264 Z M69.2150217,0.00648514 L65.3748373,0.00648514 L65.3748373,17.4863727 L72.7314035,17.4863727 L72.7314035,13.942243 L69.2150217,13.942243 L69.2150217,0.00648514 L69.2150217,0.00648514 L69.2150217,0.00648514 Z M77.2484082,13.9706155 L77.2484082,10.4272965 L80.6089752,10.4272965 L80.6089752,6.7834577 L77.2484082,6.7834577 L77.2484082,3.53602326 L80.8605511,3.53602326 L80.8589281,0.00648514 L73.3684586,0.00648514 L73.3684586,17.4871834 L81.1543269,17.4871834 L81.1543269,13.9706155 L77.2484082,13.9706155 L77.2484082,13.9706155 L77.2484082,13.9706155 Z" id="Imported-Layers" fill="#000000"></path>
    </g>
</svg>