<?xml version="1.0" encoding="UTF-8"?>
<svg width="182px" height="25px" viewBox="0 0 182 25" version="1.1" xmlns="http://www.w3.org/2000/svg" xmlns:xlink="http://www.w3.org/1999/xlink">
    <!-- Generator: Sketch 41.2 (35397) - http://www.bohemiancoding.com/sketch -->
    <title>Imported Layers Copy 2</title>
    <desc>Created with Sketch.</desc>
    <defs></defs>
    <g id="Page-1" stroke="none" stroke-width="1" fill="none" fill-rule="evenodd" opacity="0.947702892">
        <g id="partner-deck-copy" transform="translate(-409.000000, -1973.000000)" fill="#1D181F">
            <g id="Group-3-Copy-5" transform="translate(315.000000, 1877.000000)">
                <g id="Group-2" transform="translate(50.000000, 96.000000)">
                    <g id="Imported-Layers-Copy-2" transform="translate(44.000000, 0.000000)">
                        <path d="M72.2388967,14.5943182 C72.2522196,6.57231734 77.6310271,5.32556282 82.6283161,5.32556282 L88.5412498,5.32556282 L88.5412498,10.6947976 C88.5412498,10.6947976 84.6340142,10.6561209 83.1103619,10.6561209 C80.7255674,10.6561209 78.0222352,11.0303748 78.021024,14.5249276 C78.0186017,18.1889754 81.518884,18.2469904 82.9383757,18.2469904 C84.4414381,18.2469904 88.5412498,18.2811169 88.5412498,18.2811169 L88.5412498,23.72543 C88.5412498,23.72543 84.4850403,23.6742403 82.7409549,23.6867533 C77.1150686,23.72543 72.2570642,21.1955194 72.2388967,14.5943182" id="Fill-1"></path>
                        <path d="M0.398326367,0.337407167 L6.23616754,0.337407167 L6.21194413,18.260641 L9.37552113,18.2538157 L9.31496261,23.6958537 L5.51915468,23.6958537 C3.28575652,23.6958537 0.323233805,22.2420651 0.323233805,19.2980864 C0.323233805,14.8548171 0.398326367,0.337407167 0.398326367,0.337407167" id="Fill-2"></path>
                        <path d="M19.6341341,5.29371143 C15.4725528,5.29371143 9.63592276,6.93519571 9.63592276,14.6034186 C9.63592276,21.3252 16.0115236,23.6958537 19.75404,23.6958537 L29.2677832,23.6958537 L29.2677832,14.6034186 C29.2677832,9.82229698 26.4687685,5.29371143 19.6341341,5.29371143 L19.6341341,5.29371143 Z M23.4699107,18.2504031 L19.4972719,18.2504031 C18.0378116,18.2504031 15.4725528,16.9308454 15.4725528,14.6034186 C15.4725528,11.9916043 17.9990541,10.6640838 19.5941655,10.6640838 C21.7912286,10.6640838 23.4553766,12.8902687 23.4553766,13.813959 C23.4541655,14.8309285 23.4699107,18.2504031 23.4699107,18.2504031 L23.4699107,18.2504031 Z" id="Fill-3"></path>
                        <path d="M51.3789094,23.6958537 C51.3789094,23.6958537 51.3934435,15.5509975 51.3789094,14.6034186 C51.283227,8.61194404 55.6034717,5.29371143 61.2584261,5.29371143 C67.4705189,5.29371143 71.2505817,9.56293563 71.2505817,14.6034186 L71.2505817,23.6958537 L65.3727719,23.6958537 L65.3727719,14.6034186 C65.3727719,13.3532514 63.9072557,10.6640838 61.2184575,10.6640838 C58.527237,10.6640838 57.2555081,13.162143 57.2555081,14.6034186 L57.2555081,23.6958537 L51.3789094,23.6958537" id="Fill-4"></path>
                        <path d="M95.5781496,13.526159 L95.5624044,23.6958537 L89.7245633,23.6958537 L89.7245633,0.337407167 L95.5624044,0.337407167 C95.5624044,0.337407167 95.5757273,4.91832001 95.5757273,6.15483659 C96.227337,5.77034477 97.6613627,5.4029162 99.2540517,5.33466322 C104.069665,5.12990426 109.265586,8.73593697 109.275275,14.6034186 C109.283754,18.6485455 109.275275,23.6958537 109.275275,23.6958537 L103.478614,23.6958537 L103.478614,13.5136459 C103.478614,12.3522076 101.908937,10.6640838 99.2431512,10.6640838 C96.5785764,10.6640838 95.5781496,12.2054637 95.5781496,13.526159" id="Fill-5"></path>
                        <path d="M123.470192,5.29371143 L119.34979,5.29371143 C114.113901,5.29371143 110.315671,8.66882153 110.315671,14.1142722 L110.315671,23.6958537 L116.112332,23.6958537 L116.112332,15.1653682 C116.112332,14.0391939 116.392112,10.6640838 120.150374,10.6640838 L123.470192,10.6640838 L123.470192,5.29371143" id="Fill-6"></path>
                        <path d="M133.550763,5.29371143 C128.185278,5.29371143 124.083044,9.16024302 124.083044,14.5283403 C124.083044,19.8964376 128.185278,23.6958537 133.550763,23.6958537 C138.917459,23.6958537 143.158978,19.9203261 143.158978,14.5533664 C143.158978,9.18413157 138.917459,5.29371143 133.550763,5.29371143 L133.550763,5.29371143 Z M133.550763,18.2504031 C131.42637,18.2504031 129.71862,16.775001 129.71862,14.5283403 C129.71862,12.2816795 131.42637,10.6640838 133.550763,10.6640838 C135.677578,10.6640838 137.286012,12.3328693 137.286012,14.5772549 C137.286012,16.8239157 135.677578,18.2504031 133.550763,18.2504031 L133.550763,18.2504031 Z" id="Fill-7"></path>
                        <polyline id="Fill-8" points="167.444155 0.337407167 167.444155 11.0269622 173.258983 5.29371143 181.240596 5.29371143 171.883094 14.6034186 182 23.6958537 173.569043 23.6958537 167.444155 18.2504031 167.444155 23.6958537 161.646282 23.6958537 161.646282 0.337407167 167.444155 0.337407167"></polyline>
                        <path d="M144.226019,14.5624668 C144.239341,6.5416035 149.618149,5.29371143 154.615438,5.29371143 L160.528372,5.29371143 L160.528372,10.6640838 C160.528372,10.6640838 156.621136,10.6254071 155.098695,10.6254071 C152.712689,10.6254071 150.009357,10.999661 150.008146,14.4942138 C150.006935,18.1582615 153.506006,18.215139 154.925498,18.215139 C156.429771,18.215139 160.528372,18.2504031 160.528372,18.2504031 L160.528372,23.6958537 C160.528372,23.6958537 156.473373,23.6435264 154.729288,23.6560395 C149.10219,23.6958537 144.244186,21.163668 144.226019,14.5624668" id="Fill-9"></path>
                        <path d="M35.6070489,23.5161209 C34.2263147,23.0258369 31.9226687,21.2080324 31.4309335,19.4357299 C32.47254,18.5473036 35.8807734,15.688641 35.8807734,15.688641 C35.8807734,15.688641 44.572132,15.6863659 44.9439613,15.6738529 C44.9609177,15.6579272 45.0687118,20.501614 38.2292328,19.5244588 C37.9736758,19.9214637 35.6070489,23.5161209 35.6070489,23.5161209" id="Fill-10"></path>
                        <path d="M34.8488563,15.425867 L31.1087622,18.5245526 C30.9246643,18.1491611 30.6339834,16.9524588 30.6485174,15.8285597 C30.6582068,15.1073531 30.6654738,8.21721428 30.6654738,7.53923463 C30.6654738,6.3061307 31.1911218,5.27664818 32.7317305,5.27664818 C34.2408488,5.27664818 34.8524898,6.29589275 34.8440116,7.52330893 C34.8379557,8.38443409 34.8488563,15.425867 34.8488563,15.425867" id="Fill-11"></path>
                        <path d="M50.0417774,15.4383801 C50.0672119,20.5198148 46.8152195,24.4216105 40.3148681,24.4216105 C38.7875823,24.4216105 37.2966316,24.1212973 36.5444948,23.8596609 C36.6777235,23.6503517 38.5683605,20.7131983 38.7694148,20.4015096 C39.0613068,20.4606622 39.5590978,20.5061642 40.3475697,20.5107144 C44.1797128,20.5334654 45.8353827,17.6429515 45.8608173,16.487201 C45.929854,13.3680395 45.8583949,8.24451547 45.8583949,7.55288523 C45.8583949,6.3197813 46.3840429,5.28916123 47.9246516,5.28916123 C49.4337698,5.28916123 50.0454109,6.3084058 50.0369327,7.53695953 C50.0308768,8.39808469 50.0163428,10.3580829 50.0417774,15.4383801" id="Fill-12"></path>
                        <path d="M39.9551505,14.819553 C39.9539394,13.2053699 39.9527282,11.6776406 39.9551505,11.3056619 C39.9636287,10.0771081 39.3531989,9.0590011 37.8428694,9.0590011 C36.3010496,9.0590011 35.777824,10.0873461 35.777824,11.3215875 L35.777824,14.819553 L39.9551505,14.819553" id="Fill-13"></path>
                        <path d="M44.9730294,14.819553 C44.9718182,13.2030948 44.9718182,11.674228 44.9742405,11.3022492 C44.9815076,10.074833 44.3710777,9.05558845 42.8607483,9.05558845 C41.3201396,9.05558845 40.7944916,10.0839334 40.7944916,11.3170373 C40.7944916,11.6594398 40.7944916,13.0870648 40.7957028,14.819553 L44.9730294,14.819553" id="Fill-14"></path>
                    </g>
                </g>
            </g>
        </g>
    </g>
</svg>