<?xml version="1.0" encoding="UTF-8"?>
<svg width="138px" height="40px" viewBox="0 0 138 40" version="1.1" xmlns="http://www.w3.org/2000/svg" xmlns:xlink="http://www.w3.org/1999/xlink">
    <!-- Generator: Sketch 41.2 (35397) - http://www.bohemiancoding.com/sketch -->
    <title>Group 4 Copy 2</title>
    <desc>Created with Sketch.</desc>
    <defs></defs>
    <g id="Page-1" stroke="none" stroke-width="1" fill="none" fill-rule="evenodd">
        <g id="lp-copy-5" transform="translate(-631.000000, -80.000000)">
            <g id="Group-4-Copy-2" transform="translate(631.000000, 80.000000)">
                <rect id="Rectangle-17" fill="#FF5629" x="0" y="0" width="138" height="40"></rect>
                <g id="Imported-Layers" transform="translate(12.000000, 11.000000)" fill="#FFFFFF">
                    <path d="M8.5610955,8.94796309 C8.22533485,8.68064424 7.84563006,8.45430807 7.42266777,8.26848886 C6.99901885,8.08313537 6.58315171,7.9231632 6.17460859,7.78973663 C5.85326711,7.68588279 5.55069344,7.58179609 5.26597207,7.47770939 C4.98147957,7.37408841 4.72971631,7.26604316 4.51068226,7.15473792 C4.29164822,7.04343268 4.11632943,6.92467605 3.98518366,6.79846802 C3.85380901,6.67249284 3.78812168,6.52765632 3.78812168,6.36395845 L3.78812168,6.31948293 C3.78812168,6.08220251 3.88997137,5.88497336 4.09481512,5.72895974 C4.29897224,5.57317898 4.6054368,5.49517217 5.0142088,5.49517217 C5.43739997,5.49517217 5.92627846,5.59553317 6.48107315,5.79602231 C7.03586784,5.99651145 7.6050817,6.26755601 8.18894361,6.60892311 L9.45874598,4.27011599 C8.8162919,3.83956498 8.11227025,3.50145786 7.34599441,3.25649319 C6.57971858,3.01152853 5.8241999,2.88904619 5.07989612,2.88904619 C4.4811573,2.88904619 3.92292947,2.9707787 3.40498376,3.13401086 C2.88658031,3.29770873 2.43409305,3.54267339 2.047522,3.86913771 C1.66049319,4.19606774 1.35402863,4.59308747 1.12789944,5.06089546 C0.901541376,5.5284706 0.788705656,6.06706686 0.788705656,6.67575283 L0.788705656,6.72046121 C0.788705656,7.29957444 0.894217353,7.78973663 1.10592737,8.19048205 C1.31740852,8.59146034 1.59114385,8.92956746 1.9269045,9.20410485 C2.26266515,9.47910796 2.63870793,9.70195129 3.05480395,9.87240199 C3.47067109,10.0430855 3.88287622,10.1881549 4.29164822,10.3066787 C4.61253195,10.4107654 4.91922538,10.5071678 5.21127078,10.5963517 C5.50308729,10.6855356 5.76217458,10.7782124 5.98853265,10.8748477 C6.21466184,10.971483 6.39364263,11.0865139 6.52501728,11.2199405 C6.65639193,11.3538328 6.72207926,11.5096135 6.72207926,11.6875156 L6.72207926,11.7326897 C6.72207926,11.99931 6.60878579,12.2151677 6.3826566,12.378167 C6.15606966,12.541632 5.8024567,12.6233645 5.32090223,12.6233645 C4.76587867,12.6233645 4.17148848,12.5048407 3.53635841,12.2670946 C2.90145723,12.0298142 2.26266515,11.6730786 1.62066882,11.1975863 L0.197290852,13.4248553 C0.985767633,14.0489098 1.81383991,14.5055407 2.68242318,14.7954466 C3.55077758,15.0846539 4.40127968,15.2297233 5.23301397,15.2297233 C5.86059113,15.2297233 6.44834392,15.1514837 6.99558572,14.99547 C7.54305639,14.8396893 8.02094885,14.6059017 8.42994972,14.2941073 C8.83826397,13.9818472 9.15571456,13.5852932 9.3823015,13.1023496 C9.60843069,12.6201045 9.72172416,12.0444841 9.72172416,11.3757213 L9.72172416,11.3317115 C9.72172416,10.7819381 9.6120927,10.314363 9.39305866,9.92782175 C9.17425349,9.54197912 8.89685615,9.21528195 8.5610955,8.94796309 L8.5610955,8.94796309 Z M15.1339478,0.0153685056 L11.8060951,0.0153685056 L11.8060951,3.06718115 L10.4046892,3.06718115 L10.4046892,5.96298017 L11.8060951,5.96298017 L11.8060951,11.6209188 C11.8060951,12.3192544 11.8896348,12.8946419 12.0578584,13.3473142 C12.2253954,13.8006852 12.4590775,14.168365 12.7584469,14.4501209 C13.0573586,14.7325755 13.4150913,14.9288732 13.8311873,15.0401784 C14.2472833,15.1514837 14.7102989,15.2073691 15.2213783,15.2073691 C15.7759441,15.2073691 16.2650515,15.1442651 16.6884715,15.0180571 C17.1116627,14.8918491 17.4984626,14.7251241 17.8486425,14.5171835 L17.8486425,11.7992866 C17.3377919,12.0966439 16.7903212,12.2445075 16.2066882,12.2445075 C15.4914516,12.2445075 15.1339478,11.8572678 15.1339478,11.0823225 L15.1339478,5.96298017 L17.8925866,5.96298017 L17.8925866,3.06718115 L15.1339478,3.06718115 L15.1339478,0.0153685056 L15.1339478,0.0153685056 Z M28.3428221,4.27011599 C27.9191732,3.83956498 27.3829174,3.50937497 26.7333682,3.27884738 C26.083819,3.04878551 25.2994619,2.93352172 24.3798394,2.93352172 C23.3872055,2.93352172 22.5405943,3.02247277 21.8400058,3.20084057 C21.1394172,3.37920838 20.4678959,3.60950311 19.8258996,3.8914919 L20.6576339,6.47549654 C21.1975517,6.26755601 21.7122931,6.10758383 22.2014005,5.99651145 C22.690279,5.88497336 23.2558308,5.82932074 23.898056,5.82932074 C24.7302481,5.82932074 25.3575964,6.01513994 25.7810164,6.38607978 C26.2042076,6.75771819 26.4161465,7.29957444 26.4161465,8.0123471 L26.4161465,8.21283624 C25.9924976,8.06450688 25.5583204,7.94551739 25.113386,7.85633348 C24.6679939,7.76738244 24.1461573,7.72267406 23.5478762,7.72267406 C22.8472877,7.72267406 22.2084956,7.80068087 21.6319578,7.95646163 C21.055191,8.1127081 20.5592174,8.34649567 20.1433502,8.65829005 C19.7272542,8.97008443 19.4022507,9.36384417 19.1687975,9.83910356 C18.9351154,10.314363 18.8186177,10.8785734 18.8186177,11.5317349 L18.8186177,11.5764433 C18.8186177,12.1706921 18.9243582,12.6941528 19.1360683,13.1465922 C19.3475494,13.5999632 19.6359328,13.9818472 20.0009895,14.2941073 C20.3655885,14.6059017 20.7926706,14.8396893 21.2817779,14.99547 C21.7706564,15.1514837 22.2922641,15.2297233 22.8472877,15.2297233 C23.6646028,15.2297233 24.3578673,15.0918725 24.9273101,14.8173351 C25.4965239,14.5430306 25.9854024,14.1755836 26.3941744,13.7149941 L26.3941744,15.00688 L29.6126245,15.00688 L29.6126245,8.07917682 C29.6126245,7.27722025 29.5105459,6.5532705 29.3061599,5.90732755 C29.101545,5.2613846 28.7806613,4.7155698 28.3428221,4.27011599 L28.3428221,4.27011599 Z M26.4596329,10.7968409 C26.4596329,11.4204296 26.2225176,11.9254946 25.7482872,12.3111044 C25.2738279,12.6976456 24.6425887,12.8904505 23.8545697,12.8904505 C23.3141941,12.8904505 22.8763549,12.7647082 22.5405943,12.5120593 C22.2048336,12.2596432 22.0372966,11.9029076 22.0372966,11.442551 L22.0372966,11.3983083 C22.0372966,10.8634377 22.2414537,10.4552409 22.6499969,10.1727864 C23.0587689,9.89103048 23.6206587,9.7496868 24.3361241,9.7496868 C24.7446672,9.7496868 25.1278052,9.79066948 25.4855379,9.87240199 C25.8430417,9.95390164 26.1678163,10.0619469 26.4596329,10.1953735 L26.4596329,10.7968409 L26.4596329,10.7968409 Z M36.4569234,3.51263495 C35.8728326,4.00279714 35.4132502,4.65642434 35.0774895,5.47281798 L35.0774895,3.06718115 L31.7496369,3.06718115 L31.7496369,15.00688 L35.0774895,15.00688 L35.0774895,10.5963517 C35.0774895,9.15613649 35.3949401,8.09407961 36.0298413,7.41087968 C36.6647425,6.72814546 37.5367589,6.38607978 38.6463483,6.38607978 L38.8214382,6.38607978 L38.8214382,2.84433781 C37.8285754,2.79986229 37.0403275,3.02247277 36.4569234,3.51263495 L36.4569234,3.51263495 Z M44.2359506,0.0153685056 L40.9078691,0.0153685056 L40.9078691,3.06718115 L39.506692,3.06718115 L39.506692,5.96298017 L40.9078691,5.96298017 L40.9078691,11.6209188 C40.9078691,12.3192544 40.9918664,12.8946419 41.1598612,13.3473142 C41.3273982,13.8006852 41.5610803,14.168365 41.8606786,14.4501209 C42.1595903,14.7325755 42.517323,14.9288732 42.933419,15.0401784 C43.3490573,15.1514837 43.8125306,15.2073691 44.32361,15.2073691 C44.8781758,15.2073691 45.3670543,15.1442651 45.7904743,15.0180571 C46.2138944,14.8918491 46.6004654,14.7251241 46.9508741,14.5171835 L46.9508741,11.7992866 C46.4397947,12.0966439 45.8925529,12.2445075 45.308691,12.2445075 C44.5934544,12.2445075 44.2359506,11.8572678 44.2359506,11.0823225 L44.2359506,5.96298017 L46.9948183,5.96298017 L46.9948183,3.06718115 L44.2359506,3.06718115 L44.2359506,0.0153685056 L44.2359506,0.0153685056 Z M56.0610424,9.71103268 C56.0610424,10.5115921 55.8749665,11.1153881 55.5030435,11.5221878 C55.1304338,11.929686 54.6234742,12.1332023 53.9814778,12.1332023 C53.3383371,12.1332023 52.8423635,11.929686 52.4924125,11.5221878 C52.141775,11.1153881 51.9669139,10.5115921 51.9669139,9.71103268 L51.9669139,3.06718115 L48.6388324,3.06718115 L48.6388324,10.7968409 C48.6388324,12.1779107 48.9853502,13.261856 49.6788436,14.0489098 C50.3721081,14.8361964 51.3539848,15.2297233 52.6235583,15.2297233 C53.0469784,15.2297233 53.4262254,15.1773307 53.7622149,15.0723126 C54.0977467,14.967993 54.4044401,14.8259508 54.6818375,14.645953 C54.9592348,14.4666537 55.2107692,14.2610418 55.4373561,14.029117 C55.6632565,13.7974252 55.8713045,13.5545562 56.0610424,13.3002773 L56.0610424,15.00688 L59.3888951,15.00688 L59.3888951,3.06718115 L56.0610424,3.06718115 L56.0610424,9.71103268 L56.0610424,9.71103268 Z M72.2915337,4.43707385 C71.7948734,3.91035325 71.2254307,3.51263495 70.5834344,3.2453161 C69.9412091,2.9782301 69.2770119,2.84433781 68.5910714,2.84433781 C67.715393,2.84433781 66.9889415,3.02666418 66.4124036,3.39015262 C65.8358657,3.75433963 65.3433252,4.21818907 64.9347821,4.78239951 L64.9347821,3.06718115 L61.6067006,3.06718115 L61.6067006,18.571209 L64.9347821,18.571209 L64.9347821,13.4474424 C65.3289061,13.9231675 65.8138937,14.3385829 66.3906604,14.6948528 C66.9669694,15.0515884 67.7005161,15.2297233 68.5910714,15.2297233 C69.2918888,15.2297233 69.9629523,15.0955982 70.6054064,14.8289779 C71.2476316,14.5611933 71.8131835,14.1641736 72.3022909,13.6367544 C72.7913982,13.1100338 73.1855222,12.4640909 73.4846627,11.6989256 C73.7833455,10.934226 73.933488,10.0544955 73.933488,9.05926833 L73.933488,9.01455995 C73.933488,8.02003135 73.7833455,7.14006798 73.4846627,6.37513554 C73.1855222,5.61043596 72.7875073,4.96449302 72.2915337,4.43707385 L72.2915337,4.43707385 Z M70.6054064,9.05926833 C70.6054064,9.56433331 70.5287331,10.0170057 70.3753863,10.4179839 C70.2224974,10.8189622 70.0142205,11.164055 69.7517001,11.4541938 C69.488493,11.743634 69.1856905,11.9662444 68.8428347,12.1220252 C68.49975,12.2780388 68.1317179,12.3562785 67.737365,12.3562785 C67.3432411,12.3562785 66.9740646,12.2780388 66.6316666,12.1220252 C66.2885819,11.9662444 65.9889836,11.743634 65.7340161,11.4541938 C65.478133,11.164055 65.2742048,10.8157022 65.1210869,10.4070397 C64.9672825,9.99884288 64.8910669,9.54943052 64.8910669,9.05926833 L64.8910669,9.01455995 C64.8910669,8.52463062 64.9672825,8.07568397 65.1210869,7.66702144 C65.2742048,7.25882462 65.478133,6.90977325 65.7340161,6.62033307 C65.9889836,6.33042716 66.2885819,6.10758383 66.6316666,5.95180307 C66.9740646,5.79602231 67.3432411,5.7180155 67.737365,5.7180155 C68.1317179,5.7180155 68.49975,5.79602231 68.8428347,5.95180307 C69.1856905,6.10758383 69.488493,6.33042716 69.7517001,6.62033307 C70.0142205,6.90977325 70.2224974,7.25882462 70.3753863,7.66702144 C70.5287331,8.07568397 70.6054064,8.52463062 70.6054064,9.01455995 L70.6054064,9.05926833 L70.6054064,9.05926833 Z M83.765988,9.92782175 C83.5469539,9.54197912 83.2695566,9.21528195 82.9340248,8.94796309 C82.5982641,8.68064424 82.2187882,8.45430807 81.7958259,8.26848886 C81.3719481,8.08313537 80.9563099,7.9231632 80.5475379,7.78973663 C80.2261964,7.68588279 79.9233939,7.58179609 79.6391302,7.47770939 C79.3544089,7.37408841 79.1024167,7.26604316 78.8836116,7.15473792 C78.6648064,7.04343268 78.4897165,6.92467605 78.3578841,6.79846802 C78.2265094,6.67249284 78.1608221,6.52765632 78.1608221,6.36395845 L78.1608221,6.31948293 C78.1608221,6.08220251 78.2626718,5.88497336 78.4675155,5.72895974 C78.6719015,5.57317898 78.9783661,5.49517217 79.3871381,5.49517217 C79.8101004,5.49517217 80.2992078,5.59553317 80.8544602,5.79602231 C81.4087971,5.99651145 81.978011,6.26755601 82.5621018,6.60892311 L83.8316753,4.27011599 C83.1892212,3.83956498 82.4849707,3.50145786 81.7189237,3.25649319 C80.9526479,3.01152853 80.1973581,2.88904619 79.4528254,2.88904619 C78.8538577,2.88904619 78.2956299,2.9707787 77.7779131,3.13401086 C77.2592807,3.29770873 76.8067935,3.54267339 76.4206802,3.86913771 C76.0334225,4.19606774 75.7269579,4.59308747 75.5010576,5.06089546 C75.2744707,5.5284706 75.161635,6.06706686 75.161635,6.67575283 L75.161635,6.72046121 C75.161635,7.29957444 75.2671466,7.78973663 75.4788567,8.19048205 C75.6903378,8.59146034 75.9638443,8.92956746 76.3000627,9.20410485 C76.6358233,9.47910796 77.0114083,9.70195129 77.4275044,9.87240199 C77.8436004,10.0430855 78.2558055,10.1881549 78.6648064,10.3066787 C78.9856901,10.4107654 79.2919258,10.5071678 79.5842001,10.5963517 C79.8760166,10.6855356 80.1351039,10.7782124 80.3614619,10.8748477 C80.58782,10.971483 80.7665719,11.0865139 80.8977177,11.2199405 C81.0290924,11.3538328 81.0947797,11.5096135 81.0947797,11.6875156 L81.0947797,11.7326897 C81.0947797,11.99931 80.9817151,12.2151677 80.7555859,12.378167 C80.5294567,12.541632 80.175386,12.6233645 79.6936027,12.6233645 C79.138808,12.6233645 78.5444178,12.5048407 77.9092877,12.2670946 C77.2743865,12.0298142 76.6358233,11.6730786 75.9935981,11.1975863 L74.5702201,13.4248553 C75.3584681,14.0489098 76.1867692,14.5055407 77.0555814,14.7954466 C77.9237069,15.0846539 78.7739801,15.2297233 79.606401,15.2297233 C80.2335204,15.2297233 80.8210443,15.1514837 81.368515,14.99547 C81.9157568,14.8396893 82.3936493,14.6059017 82.802879,14.2941073 C83.2111933,13.9818472 83.528415,13.5852932 83.7550019,13.1023496 C83.98136,12.6201045 84.0944246,12.0444841 84.0944246,11.3757213 L84.0944246,11.3317115 C84.0944246,10.7819381 83.9852509,10.314363 83.765988,9.92782175 L83.765988,9.92782175 Z" id="Fill-1"></path>
                    <path d="M99.6920745,14.6613215 C100.421959,14.2531247 101.071737,13.7298969 101.640722,13.0911725 L99.6920745,11.0865139 C99.2833025,11.4730551 98.8708685,11.780891 98.4547725,12.0109528 C98.0393631,12.2412476 97.5536889,12.3562785 96.9991231,12.3562785 C96.5464069,12.3562785 96.1378638,12.2705874 95.7728071,12.0999039 C95.4079792,11.9294532 95.0941906,11.6956656 94.8314413,11.3983083 C94.568692,11.1014167 94.3681969,10.7523654 94.2294983,10.3511542 C94.0905707,9.95017594 94.0214502,9.51962493 94.0214502,9.05926833 L94.0214502,9.01455995 C94.0214502,8.569339 94.0905707,8.14996508 94.2294983,7.75620534 C94.3681969,7.36291131 94.5648012,7.01781851 94.8206842,6.72046121 C95.0758806,6.42356962 95.37525,6.18978205 95.7178769,6.01863279 C96.0607327,5.84818209 96.4443284,5.76272388 96.8675196,5.76272388 C97.4662584,5.76272388 97.965894,5.88171337 98.3675709,6.11899378 C98.76879,6.35650705 99.159023,6.67575283 99.5387278,7.07696397 L101.575035,4.84922922 C101.019782,4.22540761 100.378015,3.73547828 99.6483593,3.37920838 C98.9180169,3.02247277 97.9986233,2.84433781 96.8897205,2.84433781 C95.9845171,2.84433781 95.1564448,3.00803568 94.4045882,3.3345 C93.6525026,3.66143003 93.0068443,4.10688383 92.4669265,4.67109427 C91.926551,5.23553757 91.5038176,5.89615045 91.1971241,6.65363149 C90.8904307,7.41087968 90.737084,8.21283624 90.737084,9.05926833 L90.737084,9.10397671 C90.737084,9.95017594 90.8904307,10.7486397 91.1971241,11.4984365 C91.5038176,12.248699 91.926551,12.9018604 92.4669265,13.4588523 C93.0068443,14.0156114 93.6525026,14.4575723 94.4045882,14.7838038 C95.1564448,15.1109667 95.9698691,15.2741988 96.8460052,15.2741988 C98.0135002,15.2741988 98.9624188,15.069984 99.6920745,14.6613215" id="Fill-2"></path>
                    <path d="M107.048826,12.0887268 C106.676674,11.9105918 106.351671,11.6693529 106.074502,11.3650099 C105.796876,11.060434 105.585166,10.7116155 105.439601,10.3178558 C105.29335,9.92456177 105.220796,9.50495499 105.220796,9.05926833 L105.220796,9.01455995 C105.220796,8.569339 105.289687,8.14996508 105.428386,7.75620534 C105.567085,7.36291131 105.768038,7.01781851 106.030787,6.72046121 C106.293307,6.42356962 106.610758,6.18978205 106.983368,6.01863279 C107.355291,5.84818209 107.782144,5.76272388 108.263927,5.76272388 C108.716186,5.76272388 109.132053,5.85144207 109.511986,6.02980988 C109.891233,6.20794483 110.21967,6.44964951 110.496839,6.75375964 C110.774007,7.05833547 110.985717,7.40761969 111.131969,7.80068087 C111.277991,8.19444061 111.351231,8.61381453 111.351231,9.05926833 L111.351231,9.10397671 C111.351231,9.54943052 111.281653,9.96927015 111.142955,10.3620985 C111.004256,10.7558582 110.803761,11.1014167 110.54124,11.3983083 C110.278033,11.6956656 109.961041,11.9294532 109.588431,12.0999039 C109.216279,12.2705874 108.789197,12.3562785 108.307414,12.3562785 C107.840278,12.3562785 107.420749,12.2670946 107.048826,12.0887268 L107.048826,12.0887268 Z M110.803761,14.7838038 C111.577361,14.4575723 112.248882,14.0123514 112.817867,13.4474424 C113.386852,12.8832319 113.832244,12.2263448 114.153586,11.4758494 C114.474469,10.7265183 114.63514,9.92037036 114.63514,9.05926833 L114.63514,9.01455995 C114.63514,8.15369078 114.474469,7.34777566 114.153586,6.59774602 C113.832244,5.84818209 113.390514,5.19455489 112.828853,4.63756299 C112.266734,4.08057109 111.599104,3.64280154 110.825504,3.32332291 C110.051446,3.00430999 109.212617,2.84433781 108.307414,2.84433781 C107.38802,2.84433781 106.54118,3.00803568 105.768038,3.3345 C104.99398,3.66143003 104.322688,4.10688383 103.753474,4.67109427 C103.184489,5.23553757 102.739097,5.89265761 102.417755,6.64222154 C102.096872,7.39248404 101.93643,8.19816631 101.93643,9.05926833 L101.93643,9.10397671 C101.93643,9.96554445 102.096872,10.7712267 102.417755,11.5210235 C102.739097,12.2705874 103.180598,12.9239818 103.742488,13.4809737 C104.304149,14.0377327 104.972008,14.475968 105.745837,14.7954466 C106.519208,15.1144595 107.358724,15.2741988 108.263927,15.2741988 C109.183321,15.2741988 110.029703,15.1109667 110.803761,14.7838038 L110.803761,14.7838038 Z" id="Fill-3"></path>
                    <path d="M89.4146402,13.2355433 C89.4146402,14.2261133 88.6257057,15.0287685 87.6522973,15.0287685 C86.6786601,15.0287685 85.8897256,14.2261133 85.8897256,13.2355433 C85.8897256,12.2452061 86.6786601,11.442551 87.6522973,11.442551 C88.6257057,11.442551 89.4146402,12.2452061 89.4146402,13.2355433" id="Fill-4"></path>
                </g>
            </g>
        </g>
    </g>
</svg>