<?xml version="1.0" encoding="UTF-8"?>
<svg width="112px" height="29px" viewBox="0 0 112 29" version="1.1" xmlns="http://www.w3.org/2000/svg" xmlns:xlink="http://www.w3.org/1999/xlink">
    <!-- Generator: Sketch 41.2 (35397) - http://www.bohemiancoding.com/sketch -->
    <title>Imported Layers Copy</title>
    <desc>Created with Sketch.</desc>
    <defs></defs>
    <g id="Page-1" stroke="none" stroke-width="1" fill="none" fill-rule="evenodd">
        <g id="partner-deck-copy" transform="translate(-1245.000000, -1968.000000)" fill="#1D181F">
            <g id="Group-3-Copy-3" transform="translate(1115.000000, 1877.000000)">
                <g id="Group-2" transform="translate(50.000000, 91.000000)">
                    <g id="Imported-Layers-Copy" transform="translate(80.000000, 0.000000)">
                        <path d="M0.175344262,27.3482848 L0.175344262,27.2706456 C0.175344262,26.7657152 0.3696,26.3771519 0.797036066,25.9109494 L13.5044459,10.9937532 L1.76868197,10.9937532 C1.06914098,10.9937532 0.486190164,10.4499114 0.486190164,9.75060759 C0.486190164,9.05148734 1.06914098,8.46873418 1.76868197,8.46873418 L16.1081705,8.46873418 C16.924118,8.46873418 17.5459934,9.01257595 17.5459934,9.67296835 L17.5459934,9.75060759 C17.5459934,10.2557215 17.3517377,10.6441013 16.924118,11.1103038 L4.2168918,26.0275 L16.457941,26.0275 C17.1572984,26.0275 17.7402492,26.6102532 17.7402492,27.2706456 C17.7402492,27.9699494 17.1572984,28.552519 16.457941,28.552519 L1.61316721,28.552519 C0.835960656,28.552519 0.175344262,28.0086772 0.175344262,27.3482848" id="Fill-1"></path>
                        <path d="M22.9475148,2.17536709 C22.9475148,1.20423418 23.7247213,0.582753165 24.6963672,0.582753165 C25.7067541,0.582753165 26.4839607,1.20423418 26.4839607,2.17536709 L26.4839607,2.68048101 C26.4839607,3.61270253 25.7067541,4.27327848 24.6963672,4.27327848 C23.7247213,4.27327848 22.9475148,3.61270253 22.9475148,2.68048101 L22.9475148,2.17536709 L22.9475148,2.17536709 Z M23.2196197,9.78951899 C23.2196197,8.97366456 23.8802361,8.2745443 24.6963672,8.2745443 C25.5512393,8.2745443 26.2118557,8.93493671 26.2118557,9.78951899 L26.2118557,27.2317342 C26.2118557,28.0865 25.5901639,28.7468924 24.7351082,28.7468924 C23.8802361,28.7468924 23.2196197,28.0865 23.2196197,27.2317342 L23.2196197,9.78951899 L23.2196197,9.78951899 Z" id="Fill-2"></path>
                        <path d="M32.3900328,9.78951899 C32.3900328,8.97366456 33.0506492,8.2745443 33.8667803,8.2745443 C34.7216525,8.2745443 35.3822689,8.93493671 35.3822689,9.78951899 L35.3822689,13.5576835 C36.8590164,10.2168101 39.7735869,8.19672152 42.2994623,8.19672152 C43.193259,8.19672152 43.7762098,8.85711392 43.7762098,9.71187975 C43.7762098,10.5275506 43.2321836,11.1103038 42.454977,11.2268544 C38.5689443,11.693057 35.3822689,14.6066392 35.3822689,20.3947089 L35.3822689,27.2317342 C35.3822689,28.0475886 34.760577,28.7468924 33.9057049,28.7468924 C33.0506492,28.7468924 32.3900328,28.0865 32.3900328,27.2317342 L32.3900328,9.78951899" id="Fill-3"></path>
                        <path d="M49.9549377,23.2304684 L49.9549377,11.1103038 L48.322859,11.1103038 C47.623318,11.1103038 47.0016262,10.4888228 47.0016262,9.78951899 C47.0016262,9.05148734 47.623318,8.46873418 48.322859,8.46873418 L49.9549377,8.46873418 L49.9549377,3.72943671 C49.9549377,2.91358228 50.5768131,2.21427848 51.4316852,2.21427848 C52.2478164,2.21427848 52.9471738,2.91358228 52.9471738,3.72943671 L52.9471738,8.46873418 L58.1544393,8.46873418 C58.8927213,8.46873418 59.5145967,9.09021519 59.5145967,9.78951899 C59.5145967,10.5275506 58.8927213,11.1103038 58.1544393,11.1103038 L52.9471738,11.1103038 L52.9471738,22.8420886 C52.9471738,25.2894684 54.3073311,26.182962 56.3281049,26.182962 C57.3772328,26.182962 57.921259,25.9109494 58.1544393,25.9109494 C58.8539803,25.9109494 59.4367475,26.4937025 59.4367475,27.1930063 C59.4367475,27.7368481 59.086977,28.1641392 58.5818754,28.3583291 C57.7270033,28.707981 56.794282,28.9021709 55.6285639,28.9021709 C52.4031475,28.9021709 49.9549377,27.309557 49.9549377,23.2304684" id="Fill-4"></path>
                        <path d="M81.8204066,27.2317342 C81.8204066,28.0475886 81.1987148,28.7468924 80.3438426,28.7468924 C79.5277115,28.7468924 78.8670951,28.0865 78.8670951,27.2317342 L78.8670951,25.0563671 C77.5069377,27.2317342 75.447423,28.9799937 71.9888262,28.9799937 C67.1311475,28.9799937 64.2944262,25.7167595 64.2944262,20.9385506 L64.2944262,9.78951899 C64.2944262,8.93493671 64.916118,8.2745443 65.7711738,8.2745443 C66.5871213,8.2745443 67.2866623,8.93493671 67.2866623,9.78951899 L67.2866623,20.200519 C67.2866623,23.9297722 69.3074361,26.2606013 72.8436984,26.2606013 C76.2633705,26.2606013 78.8670951,23.7355823 78.8670951,19.9674177 L78.8670951,9.78951899 C78.8670951,8.93493671 79.4887869,8.2745443 80.3438426,8.2745443 C81.1597902,8.2745443 81.8204066,8.93493671 81.8204066,9.78951899 L81.8204066,27.2317342" id="Fill-5"></path>
                        <path d="M86.2499148,22.725538 L86.2499148,22.6478987 C86.2499148,18.4135316 89.7474361,16.1603418 94.8381115,16.1603418 C97.4029115,16.1603418 99.2294295,16.5099937 101.016839,17.0149241 L101.016839,16.3158038 C101.016839,12.7031013 98.8018098,10.8384747 95.0323672,10.8384747 C93.0115934,10.8384747 91.3018492,11.3044937 89.8251016,11.9650696 C89.6308459,12.0427089 89.4364066,12.0814367 89.2810754,12.0814367 C88.5815344,12.0814367 87.9598426,11.4988671 87.9598426,10.7995633 C87.9598426,10.1778987 88.3872787,9.71187975 88.7757902,9.55641772 C90.757823,8.70183544 92.7784131,8.19672152 95.3432131,8.19672152 C98.180118,8.19672152 100.356223,8.93493671 101.83297,10.411 C103.193128,11.7706962 103.892669,13.7131456 103.892669,16.2768924 L103.892669,27.2706456 C103.892669,28.1252278 103.270793,28.7468924 102.454662,28.7468924 C101.59979,28.7468924 101.016839,28.1252278 101.016839,27.3482848 L101.016839,25.5225696 C99.617941,27.3482848 97.2863213,28.9799937 93.750059,28.9799937 C90.0193574,28.9799937 86.2499148,26.8433544 86.2499148,22.725538 L86.2499148,22.725538 Z M101.055764,21.1716519 L101.055764,19.2292025 C99.5790164,18.8019114 97.5971672,18.3746203 95.1489574,18.3746203 C91.3795148,18.3746203 89.2810754,20.0061456 89.2810754,22.5313481 L89.2810754,22.6089873 C89.2810754,25.1340063 91.6126951,26.6102532 94.3328262,26.6102532 C98.0246033,26.6102532 101.055764,24.3570633 101.055764,21.1716519 L101.055764,21.1716519 Z" id="Fill-6"></path>
                        <path d="M108.983344,1.51497468 C108.983344,0.699303797 109.643961,0 110.460092,0 C111.314964,0 111.97558,0.699303797 111.97558,1.51497468 L111.97558,27.2317342 C111.97558,28.0865 111.353705,28.7468924 110.498833,28.7468924 C109.643961,28.7468924 108.983344,28.0865 108.983344,27.2317342 L108.983344,1.51497468" id="Fill-7"></path>
                    </g>
                </g>
            </g>
        </g>
    </g>
</svg>